<svg xmlns="http://www.w3.org/2000/svg" width="28" height="28" viewBox="0 0 28 28">
  <g id="Group_3" data-name="Group 3" transform="translate(-112.18 2)">
    <g id="Rectangle_2936" data-name="Rectangle 2936" transform="translate(112.18 -2)" fill="#fff" stroke="#fe4c01" stroke-width="1">
      <rect width="28" height="28" rx="5" stroke="none"/>
      <rect x="0.5" y="0.5" width="27" height="27" rx="4.5" fill="none"/>
    </g>
    <path id="Path_67" data-name="Path 67" d="M137.785,17.437l.134-.009a.981.981,0,0,1,.64.24.952.952,0,0,1,.323.6l.01.132v4.543h4.543a.985.985,0,0,1,.64.239.956.956,0,0,1,.323.6l.01.133a.979.979,0,0,1-.238.64.968.968,0,0,1-.6.324l-.134.01h-4.543v4.542a.971.971,0,0,1-.839.964l-.134.009a.982.982,0,0,1-.64-.239.955.955,0,0,1-.323-.6l-.01-.133V24.892H132.4a.981.981,0,0,1-.64-.24.954.954,0,0,1-.323-.6l-.01-.132a.972.972,0,0,1,.839-.965l.134-.008h4.543V18.4a.976.976,0,0,1,.238-.639.967.967,0,0,1,.6-.325l.134-.009Z" transform="translate(-12.13 -12.308)" fill="#fe4c01"/>
  </g>
</svg>
