<svg xmlns="http://www.w3.org/2000/svg" xmlns:xlink="http://www.w3.org/1999/xlink" width="15" height="12.5" viewBox="0 0 15 12.5" color="black">
  <defs>
    <clipPath id="clip-path">
      <rect width="15" height="12.5" fill="none"/>
    </clipPath>
    <clipPath id="clip-path-2">
      <path id="Arrow_Left" data-name="Arrow Left" d="M6.661,11.03a.876.876,0,0,1,.006,1.218.815.815,0,0,1-1.182,0L.248,6.859a.874.874,0,0,1,0-1.219L5.485.254a.818.818,0,0,1,1.182,0,.875.875,0,0,1-.006,1.218L2.845,5.392H14.165a.857.857,0,0,1,0,1.714H2.845Z" transform="translate(0)"/>
    </clipPath>
  </defs>
  <g id="_Icons_Arrow_Left" data-name="_Icons / Arrow Left" clip-path="url(#clip-path)">
    <path id="Arrow_Left-2" data-name="Arrow Left" d="M6.661,11.03a.876.876,0,0,1,.006,1.218.815.815,0,0,1-1.182,0L.248,6.859a.874.874,0,0,1,0-1.219L5.485.254a.818.818,0,0,1,1.182,0,.875.875,0,0,1-.006,1.218L2.845,5.392H14.165a.857.857,0,0,1,0,1.714H2.845Z"/>
  </g>
</svg>
