<svg xmlns="http://www.w3.org/2000/svg" xmlns:xlink="http://www.w3.org/1999/xlink" width="16.991" height="19.198" viewBox="0 0 16.991 19.198">
  <defs>
    <clipPath id="clip-path">
      <rect width="16.991" height="19.198" fill="none"/>
    </clipPath>
  </defs>
  <g id="_Icons_1_Clip" data-name="_Icons / 1 Clip" clip-path="url(#clip-path)">
    <path id="_1_Clip" data-name="1 Clip" d="M6.3,19.2A6.3,6.3,0,0,1,1.845,8.437l7.1-7.1A4.565,4.565,0,0,1,15.4,7.794l-5.874,5.87a2.826,2.826,0,0,1-4-4l4.643-4.639a1.087,1.087,0,1,1,1.535,1.535L7.071,11.2a.657.657,0,0,0,0,.926.674.674,0,0,0,.922,0l5.87-5.874A2.391,2.391,0,0,0,10.48,2.876l-7.1,7.1a4.13,4.13,0,0,0,5.843,5.839l5.87-5.87a1.087,1.087,0,1,1,1.535,1.535l-5.87,5.874A6.278,6.278,0,0,1,6.3,19.2Z" fill="#1d1d26"/>
  </g>
</svg>
