<svg xmlns="http://www.w3.org/2000/svg" width="16.93" height="17.776" viewBox="0 0 16.93 17.776">
  <g id="Group_4592" data-name="Group 4592" transform="translate(-117.012 -821.011)">
    <g id="notification" transform="translate(117.012 818.472)">
      <path id="Path_2782" data-name="Path 2782" d="M136.506,419.809a3.178,3.178,0,0,1-3.174-3.174.635.635,0,1,1,1.27,0,1.9,1.9,0,0,0,3.809,0,.635.635,0,1,1,1.27,0A3.178,3.178,0,0,1,136.506,419.809Zm0,0" transform="translate(-128.041 -399.493)"/>
      <path id="Path_2783" data-name="Path 2783" d="M15.449,79.237H1.481A1.482,1.482,0,0,1,.518,76.63a.584.584,0,0,1,.068-.051,5.689,5.689,0,0,0,1.954-4.292V69.926A5.933,5.933,0,0,1,8.465,64a2.55,2.55,0,0,1,.417.025.635.635,0,1,1-.208,1.252,1.333,1.333,0,0,0-.209-.008,4.661,4.661,0,0,0-4.656,4.656v2.362A6.962,6.962,0,0,1,1.352,77.6c-.013.01-.024.02-.037.029a.209.209,0,0,0-.045.131.214.214,0,0,0,.212.212H15.449a.214.214,0,0,0,.212-.212.2.2,0,0,0-.046-.131l-.036-.029a6.961,6.961,0,0,1-2.457-5.308v-.923a.635.635,0,0,1,1.27,0v.923a5.691,5.691,0,0,0,1.956,4.294.617.617,0,0,1,.065.049,1.481,1.481,0,0,1-.963,2.606Zm0,0" transform="translate(0 -61.461)"/>
    </g>
    <path id="Path_2784" data-name="Path 2784" d="M246.733,719.076a4.351,4.351,0,0,1,2.757,4.379" transform="translate(-119 103)" fill="none" stroke="#000" stroke-linecap="round" stroke-width="1.2"/>
  </g>
</svg>
