<svg xmlns="http://www.w3.org/2000/svg" width="30.849" height="30.85" viewBox="0 0 30.849 30.85">
  <path id="writing" d="M27.251.265a.9.9,0,0,0-1.278,0L19.008,7.23H3.212A2.715,2.715,0,0,0,.5,9.942V22.595a2.714,2.714,0,0,0,2.711,2.711h.964v4.639a.9.9,0,0,0,1.55.632l5.157-5.272H21.409a2.714,2.714,0,0,0,2.711-2.711V12.343l6.966-6.966a.9.9,0,0,0,0-1.278Zm-8.308,14.7-2.556-2.556,7.669-7.669,2.556,2.556ZM15.424,14l1.926,1.926-3.3,1.375Zm6.889,8.594a.9.9,0,0,1-.9.9H10.5a.9.9,0,0,0-.646.272L5.984,27.729V24.4a.9.9,0,0,0-.9-.9H3.212a.9.9,0,0,1-.9-.9V9.942a.9.9,0,0,1,.9-.9H17.2l-2.73,2.73a.924.924,0,0,0-.2.3l-2.5,6.006H6.888a.9.9,0,1,0,0,1.807h5.483a.914.914,0,0,0,.355-.073l6.554-2.73a.918.918,0,0,0,.3-.2l2.73-2.73ZM27.89,6.016,25.334,3.46l1.278-1.278,2.556,2.556Zm0,0" transform="translate(-0.501)" fill="#fff"/>
</svg>
