<svg xmlns="http://www.w3.org/2000/svg" width="23.381" height="28.414" viewBox="0 0 23.381 28.414">
  <g id="trophy" transform="translate(-45.8 0.2)">
    <g id="Group_20416" data-name="Group 20416" transform="translate(59.132 24.732)">
      <g id="Group_20415" data-name="Group 20415">
        <path id="Path_2799" data-name="Path 2799" d="M286.547,452a.547.547,0,1,0,.547.547A.547.547,0,0,0,286.547,452Z" transform="translate(-286 -452)" fill="#fff" stroke="#fff" stroke-width="0.4"/>
      </g>
    </g>
    <g id="Group_20418" data-name="Group 20418" transform="translate(46)">
      <g id="Group_20417" data-name="Group 20417">
        <path id="Path_2800" data-name="Path 2800" d="M67.339,2.517H65.7V1.641A1.643,1.643,0,0,0,64.056,0H50.924a1.643,1.643,0,0,0-1.641,1.641v.875H47.641A1.643,1.643,0,0,0,46,4.158c0,3.56,1.666,6.176,4.368,6.9a12.062,12.062,0,0,0,4.25,5.025,1.582,1.582,0,0,1,.684,1.321v3.015a2.191,2.191,0,0,0-1.641,2.12h-.547a1.643,1.643,0,0,0-1.641,1.641v3.283a.547.547,0,0,0,.547.547H62.962a.547.547,0,0,0,.547-.547V24.184a1.643,1.643,0,0,0-1.641-1.641H61.32a2.193,2.193,0,0,0-1.641-2.119V17.411a1.584,1.584,0,0,1,.684-1.324,12.062,12.062,0,0,0,4.25-5.025c2.7-.729,4.367-3.344,4.367-6.9A1.643,1.643,0,0,0,67.339,2.517ZM47.094,4.158a.548.548,0,0,1,.547-.547h1.641V6.057A12.018,12.018,0,0,0,49.845,9.7C48.1,8.839,47.094,6.847,47.094,4.158ZM61.868,23.637a.548.548,0,0,1,.547.547V26.92H52.566V24.184a.548.548,0,0,1,.547-.547ZM64.6,6.057a11,11,0,0,1-4.851,9.122,2.676,2.676,0,0,0-1.167,2.232V20.9a.547.547,0,0,0,.547.547,1.1,1.1,0,0,1,1.094,1.094H54.755a1.095,1.095,0,0,1,1.051-1.093l.043,0a.549.549,0,0,0,.547-.55V17.408a2.675,2.675,0,0,0-1.167-2.229,11,11,0,0,1-4.852-9.123V1.641a.548.548,0,0,1,.547-.547H64.056a.548.548,0,0,1,.547.547ZM65.136,9.7A12.025,12.025,0,0,0,65.7,6.057V3.611h1.641a.548.548,0,0,1,.547.547C67.886,6.847,66.877,8.839,65.136,9.7Z" transform="translate(-46)" fill="#fff" stroke="#fff" stroke-width="0.4"/>
      </g>
    </g>
    <g id="Group_20420" data-name="Group 20420" transform="translate(53.094 3.305)">
      <g id="Group_20419" data-name="Group 20419">
        <path id="Path_2801" data-name="Path 2801" d="M184.376,63.56a.547.547,0,0,0-.442-.372l-2.361-.343-1.056-2.14a.547.547,0,0,0-.981,0l-1.056,2.14-2.361.343a.547.547,0,0,0-.3.933l1.709,1.666-.4,2.352a.547.547,0,0,0,.794.577l2.112-1.11,2.112,1.11a.547.547,0,0,0,.794-.577l-.4-2.352,1.709-1.665A.547.547,0,0,0,184.376,63.56ZM181.559,65.2a.547.547,0,0,0-.157.484l.265,1.543-1.386-.728a.547.547,0,0,0-.509,0l-1.385.728.265-1.543a.547.547,0,0,0-.157-.484l-1.121-1.092,1.549-.225a.547.547,0,0,0,.412-.3l.693-1.4.693,1.4a.547.547,0,0,0,.412.3l1.549.225Z" transform="translate(-175.649 -60.4)" fill="#fff" stroke="#fff" stroke-width="0.4"/>
      </g>
    </g>
    <g id="Group_20422" data-name="Group 20422" transform="translate(54.755 24.732)">
      <g id="Group_20421" data-name="Group 20421">
        <path id="Path_2802" data-name="Path 2802" d="M208.736,452h-2.189a.547.547,0,1,0,0,1.094h2.189a.547.547,0,0,0,0-1.094Z" transform="translate(-206 -452)" fill="#fff" stroke="#fff" stroke-width="0.4"/>
      </g>
    </g>
  </g>
</svg>
