<svg id="bus" xmlns="http://www.w3.org/2000/svg" width="21.8" height="21.8" viewBox="0 0 21.8 21.8">
  <g id="Group_4526" data-name="Group 4526" transform="translate(0 6.358)">
    <g id="Group_4525" data-name="Group 4525">
      <path id="Path_2756" data-name="Path 2756" d="M2.271,152.966v-2.725a.454.454,0,0,0,0-.908A2.273,2.273,0,0,0,0,151.6v.908a1.364,1.364,0,0,0,1.362,1.362h.908a.454.454,0,1,0,0-.908Z" transform="translate(0 -149.333)" fill="#fff"/>
    </g>
  </g>
  <g id="Group_4528" data-name="Group 4528" transform="translate(19.075 6.358)">
    <g id="Group_4527" data-name="Group 4527">
      <path id="Path_2757" data-name="Path 2757" d="M448.454,149.333a.454.454,0,1,0,0,.908v2.725a.454.454,0,1,0,0,.908h.908a1.364,1.364,0,0,0,1.363-1.362V151.6A2.273,2.273,0,0,0,448.454,149.333Z" transform="translate(-448 -149.333)" fill="#fff"/>
    </g>
  </g>
  <g id="Group_4530" data-name="Group 4530" transform="translate(3.633 19.075)">
    <g id="Group_4529" data-name="Group 4529">
      <path id="Path_2758" data-name="Path 2758" d="M89.419,448a.454.454,0,0,0-.454.454H86.24a.454.454,0,1,0-.908,0v.908a1.364,1.364,0,0,0,1.362,1.363h1.817a1.364,1.364,0,0,0,1.362-1.363v-.908A.454.454,0,0,0,89.419,448Z" transform="translate(-85.332 -448)" fill="#fff"/>
    </g>
  </g>
  <g id="Group_4532" data-name="Group 4532" transform="translate(13.625 19.075)">
    <g id="Group_4531" data-name="Group 4531">
      <path id="Path_2759" data-name="Path 2759" d="M324.087,448a.454.454,0,0,0-.454.454h-2.725a.454.454,0,1,0-.908,0v.908a1.364,1.364,0,0,0,1.363,1.363h1.817a1.364,1.364,0,0,0,1.362-1.363v-.908A.454.454,0,0,0,324.087,448Z" transform="translate(-320 -448)" fill="#fff"/>
    </g>
  </g>
  <g id="Group_4534" data-name="Group 4534" transform="translate(1.817)">
    <g id="Group_4533" data-name="Group 4533">
      <path id="Path_2760" data-name="Path 2760" d="M58.563,0H44.938a2.273,2.273,0,0,0-2.271,2.271V17.712a2.273,2.273,0,0,0,2.271,2.271H58.563a2.273,2.273,0,0,0,2.271-2.271V2.271A2.273,2.273,0,0,0,58.563,0ZM46.754,1.817h9.992a1.362,1.362,0,1,1,0,2.725H46.754a1.362,1.362,0,1,1,0-2.725Zm0,15.441A1.362,1.362,0,1,1,48.117,15.9,1.364,1.364,0,0,1,46.754,17.258Zm9.991,0A1.362,1.362,0,1,1,58.108,15.9,1.364,1.364,0,0,1,56.746,17.258Zm2.271-5.9a1.364,1.364,0,0,1-1.362,1.362H45.846a1.364,1.364,0,0,1-1.362-1.362V6.812A1.364,1.364,0,0,1,45.846,5.45H57.654a1.364,1.364,0,0,1,1.362,1.362v4.542Z" transform="translate(-42.667)" fill="#333"/>
    </g>
  </g>
</svg>
