<svg xmlns="http://www.w3.org/2000/svg" width="20.132" height="20.132" viewBox="0 0 20.132 20.132">
  <g id="viber_1_" data-name="viber (1)" transform="translate(0 -2)">
    <g id="Group_4602" data-name="Group 4602" transform="translate(0 2)">
      <path id="Path_2796" data-name="Path 2796" d="M15.083,0H5.033A5.056,5.056,0,0,0,0,5.049V15.1a5.053,5.053,0,0,0,5.033,5.033h10.05a5.06,5.06,0,0,0,5.049-5.049V5.049A5.06,5.06,0,0,0,15.083,0ZM9.523,4.138c.032-.5.5-.32.735-.352a5.888,5.888,0,0,1,5.56,5.7c0,.288.1.7-.336.7-.415,0-.3-.431-.352-.719-.4-3.084-1.837-4.538-4.969-5.017C9.906,4.426,9.507,4.474,9.523,4.138Zm4.49,5.48c-.479.064-.383-.352-.431-.623-.32-1.885-.991-2.572-2.924-2.988-.288-.064-.735-.016-.655-.447.064-.415.463-.272.767-.24A3.9,3.9,0,0,1,14.268,9C14.236,9.187,14.364,9.554,14.012,9.618Zm-1.2-.991c0,.256-.032.5-.32.527-.208.032-.336-.144-.367-.352a1.4,1.4,0,0,0-1.294-1.358c-.24-.032-.463-.112-.352-.431.08-.208.272-.24.479-.24A2.09,2.09,0,0,1,12.814,8.628Zm3.036,5.9a2.964,2.964,0,0,1-2.445,1.821,4.1,4.1,0,0,1-.655-.176A16.343,16.343,0,0,1,3.595,7.142,2.183,2.183,0,0,1,5.113,4.026a1.145,1.145,0,0,1,.8,0A6.729,6.729,0,0,1,8.2,7.078a1.116,1.116,0,0,1-.655.991,1.112,1.112,0,0,0-.367,1.6,5.783,5.783,0,0,0,3.084,2.94.961.961,0,0,0,1.326-.3c.607-.911,1.358-.863,2.173-.3.415.288.831.559,1.214.863C15.5,13.293,16.169,13.645,15.85,14.523Z" fill="#ff4c01"/>
    </g>
  </g>
</svg>
