<svg xmlns="http://www.w3.org/2000/svg" xmlns:xlink="http://www.w3.org/1999/xlink" width="27" height="27" viewBox="0 0 27 27">
  <defs>
    <filter id="Path_2775" x="0" y="0" width="27" height="27" filterUnits="userSpaceOnUse">
      <feOffset dx="1" dy="1" input="SourceAlpha"/>
      <feGaussianBlur stdDeviation="0.5" result="blur"/>
      <feFlood flood-opacity="0.161"/>
      <feComposite operator="in" in2="blur"/>
      <feComposite in="SourceGraphic"/>
    </filter>
  </defs>
  <g id="Group_4590" data-name="Group 4590" transform="translate(-238.5 -227.5)">
    <g transform="matrix(1, 0, 0, 1, 238.5, 227.5)" filter="url(#Path_2775)">
      <path id="Path_2775-2" data-name="Path 2775" d="M12,0A12,12,0,1,1,0,12,12,12,0,0,1,12,0Z" transform="translate(0.5 0.5)" fill="#ff4c01"/>
    </g>
    <g id="_add_a_photo" data-name=" add_a_photo" transform="translate(142.853 -2448.147)">
      <rect id="Path" width="14" height="14" transform="translate(100.147 2680.147)" fill="rgba(0,0,0,0)"/>
      <path id="Icon" d="M12.782,13H3.044a1.23,1.23,0,0,1-1.218-1.238V5.4a1.2,1.2,0,0,0,.609.173A1.229,1.229,0,0,0,3.652,4.333V3.714h.609A1.229,1.229,0,0,0,5.478,2.476a1.246,1.246,0,0,0-.17-.619H9.2a1.2,1.2,0,0,1,.895.4l.755.836h1.929A1.229,1.229,0,0,1,14,4.333v7.429A1.23,1.23,0,0,1,12.782,13ZM7.913,4.952a3.1,3.1,0,1,0,3.043,3.1A3.073,3.073,0,0,0,7.913,4.952Zm0,4.953A1.858,1.858,0,1,1,9.739,8.047,1.844,1.844,0,0,1,7.913,9.9ZM2.435,4.952a.615.615,0,0,1-.609-.619V3.095H.609a.619.619,0,0,1,0-1.238H1.826V.619a.609.609,0,1,1,1.218,0V1.857H4.261a.619.619,0,0,1,0,1.238H3.044V4.333A.614.614,0,0,1,2.435,4.952Z" transform="translate(100.147 2681.147)" fill="#fff"/>
    </g>
  </g>
</svg>
