<svg id="Group_4598" data-name="Group 4598" xmlns="http://www.w3.org/2000/svg" xmlns:xlink="http://www.w3.org/1999/xlink" width="61.223" height="62.26" viewBox="0 0 61.223 62.26">
  <defs>
    <clipPath id="clip-path">
      <ellipse id="Ellipse_436" data-name="Ellipse 436" cx="24.385" cy="23.866" rx="24.385" ry="23.866" fill="#fff" stroke="#707070" stroke-width="1"/>
    </clipPath>
    <clipPath id="clip-path-2">
      <rect id="Rectangle_2876" data-name="Rectangle 2876" width="21.782" height="39.933" transform="matrix(0.819, 0.574, -0.574, 0.819, 22.905, 0)" fill="#fff" stroke="#707070" stroke-width="1"/>
    </clipPath>
  </defs>
  <ellipse id="Ellipse_435" data-name="Ellipse 435" cx="30.611" cy="31.13" rx="30.611" ry="31.13" fill="#fff"/>
  <g id="Mask_Group_8" data-name="Mask Group 8" transform="translate(4.151 8.301)" clip-path="url(#clip-path)">
    <g id="Group_4594" data-name="Group 4594" transform="translate(8.063 3.323)">
      <g id="fast-food">
        <path id="Path_2788" data-name="Path 2788" d="M2.278,339.554H13.356L8.024,336H2.278a1.777,1.777,0,1,0,0,3.554Zm0,0" transform="translate(-0.5 -311.119)" fill="#ff743a"/>
        <path id="Path_2789" data-name="Path 2789" d="M140.772,336h-9.847l5.137,3.425Zm0,0" transform="translate(-121.267 -311.119)" fill="#ff743a"/>
        <path id="Path_2790" data-name="Path 2790" d="M8.484,231.109H23.271A7.711,7.711,0,0,0,15.592,224H8.484a7.711,7.711,0,0,0-7.679,7.109Zm8.294-3.554h1.185v1.185H16.777ZM15,225.185h1.185v1.185H15Zm-1.777,2.37h1.185v1.185H13.223Zm-1.777-2.37H12.63v1.185H11.446Zm-1.777,2.37h1.185v1.185H9.668Zm-1.777-2.37H9.076v1.185H7.891Zm-1.777,2.37H7.3v1.185H6.114Zm0,0" transform="translate(-0.782 -207.413)" fill="#ff743a"/>
        <path id="Path_2791" data-name="Path 2791" d="M2.277,400H.5v1.777a1.777,1.777,0,0,0,1.777,1.777H21.234a1.777,1.777,0,0,0,1.777-1.777V400Zm0,0" transform="translate(-0.5 -370.38)" fill="#ff743a"/>
        <path id="Path_2792" data-name="Path 2792" d="M241.512,149.42a8.962,8.962,0,0,1,1.659.9l-.141-2.137,1.185-.078.216,3.268A8.855,8.855,0,0,1,247,157.626a.592.592,0,0,1-.592.592h-.015a2.9,2.9,0,0,1,0,3.554h.015a.592.592,0,0,1,.592.592v2.37a2.933,2.933,0,0,1-.608,1.777h5.983L254.066,144H241.125Zm2.529-3.684.085,1.185-1.182.084-.085-1.185Zm0,0" transform="translate(-223.307 -133.337)" fill="#ff743a"/>
        <path id="Path_2793" data-name="Path 2793" d="M225.978,104H216.5v1.777h16.587V104Zm0,0" transform="translate(-200.505 -96.299)" fill="#ff743a"/>
        <path id="Path_2794" data-name="Path 2794" d="M320.5,0h1.185V6.516H320.5Zm0,0" transform="translate(-296.804)" fill="#ff743a"/>
        <path id="Path_2795" data-name="Path 2795" d="M229.825,337.6l-4.724,3.436h4.1a1.774,1.774,0,0,0,.622-3.436Zm0,0" transform="translate(-208.469 -312.602)" fill="#ff743a"/>
      </g>
      <g id="Mask_Group_7" data-name="Mask Group 7" transform="translate(8.262 3.06)" clip-path="url(#clip-path-2)">
        <g id="fast-food-2" data-name="fast-food" transform="translate(-8.262 -3.06)">
          <path id="Path_2788-2" data-name="Path 2788" d="M2.278,339.554H13.356L8.024,336H2.278a1.777,1.777,0,1,0,0,3.554Zm0,0" transform="translate(-0.5 -311.119)" fill="#ff4b00"/>
          <path id="Path_2789-2" data-name="Path 2789" d="M140.772,336h-9.847l5.137,3.425Zm0,0" transform="translate(-121.267 -311.119)" fill="#ff4b00"/>
          <path id="Path_2790-2" data-name="Path 2790" d="M8.484,231.109H23.271A7.711,7.711,0,0,0,15.592,224H8.484a7.711,7.711,0,0,0-7.679,7.109Zm8.294-3.554h1.185v1.185H16.777ZM15,225.185h1.185v1.185H15Zm-1.777,2.37h1.185v1.185H13.223Zm-1.777-2.37H12.63v1.185H11.446Zm-1.777,2.37h1.185v1.185H9.668Zm-1.777-2.37H9.076v1.185H7.891Zm-1.777,2.37H7.3v1.185H6.114Zm0,0" transform="translate(-0.782 -207.413)" fill="#ff4b00"/>
          <path id="Path_2791-2" data-name="Path 2791" d="M2.277,400H.5v1.777a1.777,1.777,0,0,0,1.777,1.777H21.234a1.777,1.777,0,0,0,1.777-1.777V400Zm0,0" transform="translate(-0.5 -370.38)" fill="#ff4b00"/>
          <path id="Path_2792-2" data-name="Path 2792" d="M241.512,149.42a8.962,8.962,0,0,1,1.659.9l-.141-2.137,1.185-.078.216,3.268A8.855,8.855,0,0,1,247,157.626a.592.592,0,0,1-.592.592h-.015a2.9,2.9,0,0,1,0,3.554h.015a.592.592,0,0,1,.592.592v2.37a2.933,2.933,0,0,1-.608,1.777h5.983L254.066,144H241.125Zm2.529-3.684.085,1.185-1.182.084-.085-1.185Zm0,0" transform="translate(-223.307 -133.337)" fill="#ff4b00"/>
          <path id="Path_2793-2" data-name="Path 2793" d="M225.978,104H216.5v1.777h16.587V104Zm0,0" transform="translate(-200.505 -96.299)" fill="#ff4b00"/>
          <path id="Path_2794-2" data-name="Path 2794" d="M320.5,0h1.185V6.516H320.5Zm0,0" transform="translate(-296.804)" fill="#ff4b00"/>
          <path id="Path_2795-2" data-name="Path 2795" d="M229.825,337.6l-4.724,3.436h4.1a1.774,1.774,0,0,0,.622-3.436Zm0,0" transform="translate(-208.469 -312.602)" fill="#ff4b00"/>
        </g>
      </g>
    </g>
  </g>
</svg>
