<svg xmlns="http://www.w3.org/2000/svg" xmlns:xlink="http://www.w3.org/1999/xlink" width="62.26" height="62.26" viewBox="0 0 62.26 62.26">
  <defs>
    <clipPath id="clip-path">
      <ellipse id="Ellipse_437" data-name="Ellipse 437" cx="24.385" cy="24.904" rx="24.385" ry="24.904" fill="#fff" stroke="#707070" stroke-width="1"/>
    </clipPath>
    <clipPath id="clip-path-2">
      <rect id="Rectangle_2875" data-name="Rectangle 2875" width="21.782" height="39.933" transform="matrix(0.819, 0.574, -0.574, 0.819, 22.905, 0)" fill="#fff" stroke="#707070" stroke-width="1"/>
    </clipPath>
  </defs>
  <g id="Group_4599" data-name="Group 4599" transform="translate(0)">
    <circle id="Ellipse_434" data-name="Ellipse 434" cx="31.13" cy="31.13" r="31.13" transform="translate(0)" fill="#fff"/>
    <g id="Mask_Group_9" data-name="Mask Group 9" transform="translate(7.264 6.226)" clip-path="url(#clip-path)">
      <g id="Group_4595" data-name="Group 4595" transform="translate(10.991 9.977)">
        <g id="document" transform="translate(3.526 1.77)">
          <path id="Path_2785" data-name="Path 2785" d="M74.5,7.528a1.759,1.759,0,0,1-1.757-1.757V0H63.76A2.763,2.763,0,0,0,61,2.76V22.936a2.763,2.763,0,0,0,2.76,2.76H77.813a2.763,2.763,0,0,0,2.76-2.76V7.528Zm-9.385,10.54h3.65a.753.753,0,0,1,0,1.506h-3.65a.753.753,0,0,1,0-1.506Zm-.753-3.262a.753.753,0,0,1,.753-.753H76.157a.753.753,0,1,1,0,1.506H65.115A.753.753,0,0,1,64.363,14.806Zm11.794-4.768a.753.753,0,1,1,0,1.506H65.115a.753.753,0,0,1,0-1.506Z" transform="translate(-61)" fill="#ff743a"/>
          <path id="Path_2786" data-name="Path 2786" d="M325,11.68a.251.251,0,0,0,.251.251h5.737a2.753,2.753,0,0,0-.528-.689l-4.839-4.578A2.766,2.766,0,0,0,325,6.221V11.68Z" transform="translate(-311.75 -5.909)" fill="#ff743a"/>
        </g>
        <g id="Mask_Group_6" data-name="Mask Group 6" transform="translate(0 0)" clip-path="url(#clip-path-2)">
          <g id="document-2" data-name="document" transform="translate(3.526 1.77)">
            <path id="Path_2785-2" data-name="Path 2785" d="M74.5,7.528a1.759,1.759,0,0,1-1.757-1.757V0H63.76A2.763,2.763,0,0,0,61,2.76V22.936a2.763,2.763,0,0,0,2.76,2.76H77.813a2.763,2.763,0,0,0,2.76-2.76V7.528Zm-9.385,10.54h3.65a.753.753,0,0,1,0,1.506h-3.65a.753.753,0,0,1,0-1.506Zm-.753-3.262a.753.753,0,0,1,.753-.753H76.157a.753.753,0,1,1,0,1.506H65.115A.753.753,0,0,1,64.363,14.806Zm11.794-4.768a.753.753,0,1,1,0,1.506H65.115a.753.753,0,0,1,0-1.506Z" transform="translate(-61)" fill="#ff4b00"/>
            <path id="Path_2786-2" data-name="Path 2786" d="M325,11.68a.251.251,0,0,0,.251.251h5.737a2.753,2.753,0,0,0-.528-.689l-4.839-4.578A2.766,2.766,0,0,0,325,6.221V11.68Z" transform="translate(-311.75 -5.909)" fill="#ff4b00"/>
          </g>
        </g>
      </g>
    </g>
  </g>
</svg>
