<svg xmlns="http://www.w3.org/2000/svg" xmlns:xlink="http://www.w3.org/1999/xlink" width="62.26" height="62.26" viewBox="0 0 62.26 62.26">
  <defs>
    <clipPath id="clip-path">
      <circle id="Ellipse_438" data-name="Ellipse 438" cx="20.753" cy="20.753" r="20.753" fill="#fff" stroke="#707070" stroke-width="1"/>
    </clipPath>
    <clipPath id="clip-path-2">
      <rect id="Rectangle_2874" data-name="Rectangle 2874" width="21.782" height="39.933" transform="translate(27.234 0) rotate(43)" fill="#fff" stroke="#707070" stroke-width="1"/>
    </clipPath>
  </defs>
  <g id="Group_20501" data-name="Group 20501" transform="translate(0)">
    <circle id="Ellipse_433" data-name="Ellipse 433" cx="31.13" cy="31.13" r="31.13" transform="translate(0)" fill="#fff"/>
    <g id="Mask_Group_10" data-name="Mask Group 10" transform="translate(10.377 10.377)" clip-path="url(#clip-path)">
      <g id="Group_4596" data-name="Group 4596" transform="translate(5.541 6.359)">
        <g id="front-of-bus" transform="translate(2.469 0.947)">
          <path id="Path_2787" data-name="Path 2787" d="M25.292,6.576c-.22-2.147-.569-3.818-1.123-4.475C21.887-.6,5.9-.8,4.089,2.1a12.872,12.872,0,0,0-.964,4.479,1.354,1.354,0,0,0-1.2,1.342v2.63a1.355,1.355,0,0,0,.888,1.27c-.123,4.142-.023,8.463.16,10.613,0,1.659,1.115,1.384,1.115,1.384H5.133v1.791a1.491,1.491,0,0,0,1.634,1.285A1.492,1.492,0,0,0,8.4,25.608V23.817H20.557v1.791a1.491,1.491,0,0,0,1.635,1.285,1.491,1.491,0,0,0,1.634-1.285V23.817h.343s1.312.18,1.4-.6c0-2.143.135-6.893.024-11.377a1.349,1.349,0,0,0,.951-1.289V7.921A1.352,1.352,0,0,0,25.292,6.576Zm-17.3-4.09H20.266V4.343H7.993ZM8.168,21.7a1.744,1.744,0,1,1,1.745-1.745A1.744,1.744,0,0,1,8.168,21.7Zm12.032,0a1.744,1.744,0,1,1,1.744-1.745A1.746,1.746,0,0,1,20.2,21.7Zm2.218-7.635H5.841V5.372H22.418Z" transform="translate(-1.926 0)" fill="#ff743a"/>
        </g>
        <g id="Mask_Group_5" data-name="Mask Group 5" transform="translate(0 0)" clip-path="url(#clip-path-2)">
          <g id="front-of-bus-2" data-name="front-of-bus" transform="translate(2.469 0.947)">
            <path id="Path_2787-2" data-name="Path 2787" d="M25.292,6.576c-.22-2.147-.569-3.818-1.123-4.475C21.887-.6,5.9-.8,4.089,2.1a12.872,12.872,0,0,0-.964,4.479,1.354,1.354,0,0,0-1.2,1.342v2.63a1.355,1.355,0,0,0,.888,1.27c-.123,4.142-.023,8.463.16,10.613,0,1.659,1.115,1.384,1.115,1.384H5.133v1.791a1.491,1.491,0,0,0,1.634,1.285A1.492,1.492,0,0,0,8.4,25.608V23.817H20.557v1.791a1.491,1.491,0,0,0,1.635,1.285,1.491,1.491,0,0,0,1.634-1.285V23.817h.343s1.312.18,1.4-.6c0-2.143.135-6.893.024-11.377a1.349,1.349,0,0,0,.951-1.289V7.921A1.352,1.352,0,0,0,25.292,6.576Zm-17.3-4.09H20.266V4.343H7.993ZM8.168,21.7a1.744,1.744,0,1,1,1.745-1.745A1.744,1.744,0,0,1,8.168,21.7Zm12.032,0a1.744,1.744,0,1,1,1.744-1.745A1.746,1.746,0,0,1,20.2,21.7Zm2.218-7.635H5.841V5.372H22.418Z" transform="translate(-1.926 0)" fill="#ff4b00"/>
          </g>
        </g>
      </g>
    </g>
  </g>
</svg>
