<svg xmlns="http://www.w3.org/2000/svg" xmlns:xlink="http://www.w3.org/1999/xlink" width="46" height="46" viewBox="0 0 46 46">
  <defs>
    <filter id="Rectangle_2895" x="0" y="0" width="46" height="46" filterUnits="userSpaceOnUse">
      <feOffset dy="3" input="SourceAlpha"/>
      <feGaussianBlur stdDeviation="3" result="blur"/>
      <feFlood flood-opacity="0.161"/>
      <feComposite operator="in" in2="blur"/>
      <feComposite in="SourceGraphic"/>
    </filter>
    <clipPath id="clip-path">
      <rect width="12.734" height="10.188" fill="none"/>
    </clipPath>
  </defs>
  <g id="Group_20501" data-name="Group 20501" transform="translate(-11 -36)">
    <g transform="matrix(1, 0, 0, 1, 11, 36)" filter="url(#Rectangle_2895)">
      <g id="Rectangle_2895-2" data-name="Rectangle 2895" transform="translate(9 6)" fill="#fff" stroke="rgba(255,255,255,0.6)" stroke-width="1" opacity="0.53">
        <rect width="28" height="28" rx="5" stroke="none"/>
        <rect x="0.5" y="0.5" width="27" height="27" rx="4.5" fill="none"/>
      </g>
    </g>
    <g id="Group_612" data-name="Group 612" transform="translate(-309 -5)">
      <g id="Group_608" data-name="Group 608" transform="translate(-4219.369 -2065)">
        <g id="_Icons_Check" data-name="_Icons / Check" transform="translate(4551.5 2121)" clip-path="url(#clip-path)">
          <path id="Path-94" d="M1.5,9.888A.849.849,0,0,1,.2,8.789L7.418.3A.849.849,0,0,1,8.629.214l3.82,3.4a.849.849,0,1,1-1.128,1.269L8.15,2.06Z" transform="translate(12.734 10.188) rotate(180)" fill="#fff"/>
        </g>
        <line id="Line_8815" data-name="Line 8815" x2="5.094" transform="translate(4566.145 2122.592)" fill="none" stroke="#fff" stroke-linecap="round" stroke-width="1.5"/>
        <line id="Line_8816" data-name="Line 8816" x2="5.094" transform="translate(4562.961 2126.412)" fill="none" stroke="#fff" stroke-linecap="round" stroke-width="1.5"/>
        <line id="Line_8817" data-name="Line 8817" x2="5.094" transform="translate(4559.777 2130.232)" fill="none" stroke="#fff" stroke-linecap="round" stroke-width="1.5"/>
      </g>
    </g>
  </g>
</svg>
