<svg xmlns="http://www.w3.org/2000/svg" width="20" height="22.858" viewBox="0 0 20 22.858">
  <path id="Icon_awesome-user-graduate" data-name="Icon awesome-user-graduate" d="M14.259,14.312,10,18.571,5.741,14.312A5.987,5.987,0,0,0,0,20.285v.429a2.143,2.143,0,0,0,2.143,2.143H17.857A2.143,2.143,0,0,0,20,20.714v-.429a5.987,5.987,0,0,0-5.741-5.973ZM.607,3.562l.286.067V6.236a1.031,1.031,0,0,0-.04,1.786L.156,10.8c-.076.308.094.625.339.625H2.362c.246,0,.415-.317.339-.625L2,8.022a1.031,1.031,0,0,0-.04-1.786V3.888l2.946.71A5.671,5.671,0,0,0,10,12.857a5.812,5.812,0,0,0,5.463-4.034,5.224,5.224,0,0,0,.251-1.68A5.612,5.612,0,0,0,15.089,4.6l4.3-1.036a.71.71,0,0,0,0-1.406L10.888.1A3.835,3.835,0,0,0,9.116.1L.607,2.151a.713.713,0,0,0,0,1.411Z" transform="translate(0 0.002)" fill="#6c6c6c"/>
</svg>
